<?xml version="1.0" encoding="UTF-8" standalone="no"?>
<!DOCTYPE svg PUBLIC "-//W3C//DTD SVG 20010904//EN"
"http://www.w3.org/TR/2001/REC-SVG-20010904/DTD/svg10.dtd">
<!-- Created with Inkscape (http://www.inkscape.org/) -->
<!-- 
Created By Andrew Fitzsimon.
Much of this document has been manually cleaned and crafted in a text editor so that only the colour definitions and basic presentation related data remain in the XML. 
Changes to this document may compromise the structure of this palette.
-->
<svg
   version="1.0"
   x="00"
   y="00"
   width="128"
   height="128"
   id="Etiquette"
   sodipodi:version="0.32"
   inkscape:version="0.40"
   sodipodi:docname="file-manager.svg"
   sodipodi:docbase="/usr/share/icons/dlg-etiquette/scalable/apps"
   xmlns="http://www.w3.org/2000/svg"
   xmlns:cc="http://web.resource.org/cc/"
   xmlns:inkscape="http://www.inkscape.org/namespaces/inkscape"
   xmlns:sodipodi="http://sodipodi.sourceforge.net/DTD/sodipodi-0.dtd"
   xmlns:rdf="http://www.w3.org/1999/02/22-rdf-syntax-ns#"
   xmlns:dc="http://purl.org/dc/elements/1.1/"
   xmlns:xlink="http://www.w3.org/1999/xlink">
  <metadata
     id="About">
    <rdf:RDF
       id="RDF232">
      <cc:Work
         rdf:about=""
         id="Work233">
        <dc:format
           id="format234">image/svg+xml</dc:format>
        <dc:type
           id="type236"
           rdf:resource="http://purl.org/dc/dcmitype/StillImage" />
        <dc:creator
           id="creator1291">
          <cc:Agent
             id="Agent1292">
            <dc:title
               id="title1293">Andrew Fitzsimon</dc:title>
          </cc:Agent>
        </dc:creator>
        <dc:date
           id="date1295">2004-12-25</dc:date>
        <dc:title
           id="title1297">Etiquette Icon</dc:title>
        <cc:license
           id="license1299"
           rdf:resource="http://creativecommons.org/licenses/by/2.0/" />
        <dc:rights
           id="rights1308">
          <cc:Agent
             id="Agent1309">
            <dc:title
               id="title1310">Andrew Fitzsimon</dc:title>
          </cc:Agent>
        </dc:rights>
      </cc:Work>
      <cc:License
         rdf:about="http://creativecommons.org/licenses/by/2.0/"
         id="License1300">
        <cc:permits
           rdf:resource="http://web.resource.org/cc/Reproduction"
           id="permits1301" />
        <cc:permits
           rdf:resource="http://web.resource.org/cc/Distribution"
           id="permits1302" />
        <cc:requires
           rdf:resource="http://web.resource.org/cc/Notice"
           id="requires1303" />
        <cc:requires
           rdf:resource="http://web.resource.org/cc/Attribution"
           id="requires1304" />
        <cc:prohibits
           rdf:resource="http://web.resource.org/cc/CommercialUse"
           id="prohibits1305" />
        <cc:permits
           rdf:resource="http://web.resource.org/cc/DerivativeWorks"
           id="permits1306" />
        <cc:requires
           rdf:resource="http://web.resource.org/cc/ShareAlike"
           id="requires1307" />
      </cc:License>
    </rdf:RDF>
  </metadata>
  <sodipodi:namedview
     id="base"
     pagecolor="#ffffff"
     bordercolor="#666666"
     borderopacity="1.0"
     inkscape:pageopacity="0.0"
     inkscape:pageshadow="0"
     inkscape:zoom="2.0000000"
     inkscape:cx="124.28048"
     inkscape:cy="42.327179"
     inkscape:window-width="769"
     inkscape:window-height="853"
     inkscape:window-x="163"
     inkscape:window-y="26"
     inkscape:current-layer="Etiquette"
     showgrid="true"
     gridspacingx="8.0000000pt"
     gridspacingy="8.0000000pt"
     gridoriginy="0.0000000pt"
     gridoriginx="0pt"
     inkscape:grid-points="false"
     gridtolerance="40pt"
     showborder="true"
     inkscape:grid-bbox="false"
     gridcolor="#ffffff"
     gridopacity="0.0000000"
     gridempspacing="14"
     gridempcolor="#3f3fff"
     gridempopacity="0.0000000" />
  <defs
     id="Gradients"><linearGradient
   id="linearGradient2205">
  <stop
     offset="0.0000000"
     style="stop-color:#ffffff;stop-opacity:0.50000000;"
     id="stop2207" />
  <stop
     offset="1.0000000"
     style="stop-color:#cbd5e8;stop-opacity:0.49152541;"
     id="stop2206" />
</linearGradient>
<linearGradient
   id="linearGradient2201">
  <stop
     style="stop-color:#ffffff;stop-opacity:0.83050847;"
     offset="0.0000000"
     id="stop2202" />
  <stop
     style="stop-color:#ffffff;stop-opacity:0;"
     offset="1"
     id="stop2203" />
</linearGradient>
<linearGradient
   inkscape:collect="always"
   id="linearGradient92">
  <stop
     style="stop-color:#000000;stop-opacity:1;"
     offset="0"
     id="stop93" />
  <stop
     style="stop-color:#000000;stop-opacity:0;"
     offset="1"
     id="stop94" />
</linearGradient>
<linearGradient
   id="3DShadowGradient">
  <stop
     style="stop-color:#565248;stop-opacity:0.50000000;"
     offset="0.0000000"
     id="stop3933" />
  <stop
     style="stop-color:#565248;stop-opacity:0;"
     offset="1"
     id="stop3934" />
</linearGradient>
<radialGradient
   inkscape:collect="always"
   xlink:href="#MaterialSoftShadow"
   id="radialGradient2970"
   gradientUnits="userSpaceOnUse"
   cx="25.912205"
   cy="175.83524"
   fx="25.459438"
   fy="142.80988"
   r="56.143108" />
<linearGradient
   id="Basic3DDarkGradient">
  <stop
     style="stop-color:#fff9e7;stop-opacity:0.77966100;"
     offset="0.0000000"
     id="stop3929" />
  <stop
     style="stop-color:#807d74;stop-opacity:0;"
     offset="1"
     id="stop3930" />
</linearGradient>
<linearGradient
   id="MaterialSoftShadow">
  <stop
     style="stop-color:#000000;stop-opacity:0.215;"
     offset="0"
     id="stop2619" />
  <stop
     style="stop-color:#000000;stop-opacity:0.098;"
     offset="0.50000000"
     id="stop2621" />
  <stop
     style="stop-color:#000000;stop-opacity:0;"
     offset="1"
     id="stop2620" />
</linearGradient>
<linearGradient
   id="WhiteTransparent">
  <stop
     style="stop-color:#ffffff;stop-opacity:1;"
     offset="0"
     id="stopWhiteFull" />
  <stop
     style="stop-color:#ffffff;stop-opacity:0;"
     offset="1"
     id="stopWhiteTransparent" />
</linearGradient>
<linearGradient
   inkscape:collect="always"
   xlink:href="#WhiteTransparent"
   id="linearGradient10409"
   gradientUnits="userSpaceOnUse"
   gradientTransform="matrix(3.180358,0.000000,0.000000,0.346182,-3.048520,-4.711982)"
   x1="26.845953"
   y1="160.47531"
   x2="26.888615"
   y2="207.16502" />
<linearGradient
   inkscape:collect="always"
   xlink:href="#Basic3DDarkGradient"
   id="linearGradient10415"
   gradientUnits="userSpaceOnUse"
   gradientTransform="matrix(1.531530,0.000000,0.000000,0.718878,-3.048520,-5.175702)"
   x1="3.3979435"
   y1="124.18470"
   x2="78.711426"
   y2="124.18470" />
<linearGradient
   inkscape:collect="always"
   xlink:href="#Basic3DDarkGradient"
   id="linearGradient10421"
   gradientUnits="userSpaceOnUse"
   gradientTransform="matrix(1.118869,0.000000,0.000000,0.869035,1.624231,-1.421085e-14)"
   x1="64.216156"
   y1="58.259041"
   x2="65.807091"
   y2="23.747826" />
<linearGradient
   inkscape:collect="always"
   xlink:href="#WhiteTransparent"
   id="linearGradient194"
   gradientTransform="matrix(1.912425,0.000000,0.000000,0.575700,-3.048520,-5.175702)"
   x1="38.306545"
   y1="235.00525"
   x2="41.340191"
   y2="148.93845"
   gradientUnits="userSpaceOnUse" />
<linearGradient
   inkscape:collect="always"
   xlink:href="#3DShadowGradient"
   id="linearGradient198"
   gradientTransform="matrix(1.222691,0.000000,0.000000,0.900458,-3.048520,-5.175702)"
   x1="51.691013"
   y1="-6.4641781"
   x2="59.674019"
   y2="52.618374"
   gradientUnits="userSpaceOnUse" />
<linearGradient
   inkscape:collect="always"
   xlink:href="#linearGradient92"
   id="linearGradient225"
   gradientTransform="scale(1.884921,0.530526)"
   x1="34.063450"
   y1="113.74319"
   x2="34.190170"
   y2="85.134789"
   gradientUnits="userSpaceOnUse" />
<linearGradient
   inkscape:collect="always"
   xlink:href="#Basic3DDarkGradient"
   id="linearGradient102"
   gradientUnits="userSpaceOnUse"
   gradientTransform="scale(1.459604,0.685117)"
   x1="55.407467"
   y1="92.169785"
   x2="55.407467"
   y2="253.63820" />
<linearGradient
   inkscape:collect="always"
   xlink:href="#MaterialSoftShadow"
   id="linearGradient866"
   gradientUnits="userSpaceOnUse"
   gradientTransform="scale(1.822611,0.548663)"
   x1="38.521580"
   y1="237.15240"
   x2="33.548130"
   y2="125.36791" />
<metadata
   id="metadata68">
  <rdf:RDF
   id="RDF69">
    <cc:Work
   rdf:about=""
   id="Work70">
      <dc:format
   id="format71">image/svg+xml</dc:format>


      <dc:type
   id="type73"
   rdf:resource="http://purl.org/dc/dcmitype/StillImage" />


    </cc:Work>


  </rdf:RDF>


</metadata>



  <defs
   id="defs192">










    
    
    
    <linearGradient
   id="XMLID_1_"
   gradientUnits="userSpaceOnUse"
   x1="86.394997"
   y1="86.276398"
   x2="312.32861"
   y2="312.20990">
      <stop
   offset="0"
   style="stop-color:#FFFFFF"
   id="stop161" />



      <stop
   offset="1"
   style="stop-color:#99CCFF"
   id="stop162" />



    </linearGradient>



    
    
    
    
    
    
    <linearGradient
   id="XMLID_2_"
   gradientUnits="userSpaceOnUse"
   x1="211.95700"
   y1="220.91991"
   x2="223.18260"
   y2="208.09070"
   gradientTransform="matrix(0.999900,1.200000e-2,-1.200000e-2,0.999900,2.579000,-2.600000)">
      <stop
   offset="0.0000000"
   style="stop-color:#ff5800;stop-opacity:1.0000000;"
   id="stop173" />



      <stop
   offset="1.0000000"
   style="stop-color:#ffcc31;stop-opacity:1.0000000;"
   id="stop174" />



    </linearGradient>



    
    
    
    
    
    <linearGradient
   id="XMLID_3_"
   gradientUnits="userSpaceOnUse"
   x1="98.557602"
   y1="135.62700"
   x2="189.67870"
   y2="135.62700"
   spreadMethod="pad"
   xlink:href="#linearGradient2205">
      


      


    </linearGradient>



    
    
  </defs>



  <sodipodi:namedview
   id="namedview1167"
   inkscape:zoom="5.2885695"
   inkscape:cx="4.9960863"
   inkscape:cy="24.856355"
   inkscape:window-width="640"
   inkscape:window-height="538"
   inkscape:window-x="0"
   inkscape:window-y="26"
   inkscape:current-layer="svg153" />



  




  




















<linearGradient
   inkscape:collect="always"
   xlink:href="#XMLID_2_"
   id="linearGradient1567"
   gradientUnits="userSpaceOnUse"
   gradientTransform="matrix(0.999900,1.200000e-2,-1.200000e-2,0.999900,2.579000,-2.600000)"
   x1="211.957"
   y1="220.9199"
   x2="223.1826"
   y2="208.0907" />
<linearGradient
   inkscape:collect="always"
   xlink:href="#XMLID_3_"
   id="linearGradient1568"
   gradientUnits="userSpaceOnUse"
   x1="98.5576"
   y1="135.627"
   x2="189.6787"
   y2="135.627" />
<linearGradient
   inkscape:collect="always"
   xlink:href="#linearGradient2201"
   id="linearGradient2204"
   gradientTransform="scale(1.076339,0.929075)"
   x1="109.57417"
   y1="101.93172"
   x2="155.59663"
   y2="145.43968"
   gradientUnits="userSpaceOnUse" />
<linearGradient
   inkscape:collect="always"
   xlink:href="#XMLID_2_"
   id="linearGradient2217"
   gradientUnits="userSpaceOnUse"
   gradientTransform="matrix(0.999900,1.200000e-2,-1.200000e-2,0.999900,2.579000,-2.600000)"
   x1="211.957"
   y1="220.9199"
   x2="223.1826"
   y2="208.0907" />
<linearGradient
   inkscape:collect="always"
   xlink:href="#linearGradient2205"
   id="linearGradient2218"
   gradientUnits="userSpaceOnUse"
   x1="98.5576"
   y1="135.627"
   x2="189.6787"
   y2="135.627" />
<linearGradient
   inkscape:collect="always"
   xlink:href="#linearGradient2201"
   id="linearGradient2219"
   gradientUnits="userSpaceOnUse"
   gradientTransform="scale(1.076339,0.929075)"
   x1="109.57417"
   y1="101.93172"
   x2="155.59663"
   y2="145.43968" />
</defs>
  <path
     sodipodi:type="arc"
     style="fill:url(#radialGradient2970);fill-opacity:1.0000000;fill-rule:evenodd;stroke-width:1.0000000pt"
     id="path10398"
     sodipodi:cx="25.912205"
     sodipodi:cy="175.83524"
     sodipodi:rx="56.143108"
     sodipodi:ry="56.143108"
     d="M 82.055313 175.83524 A 56.143108 56.143108 0 1 1  -30.230904,175.83524 A 56.143108 56.143108 0 1 1  82.055313 175.83524 z"
     transform="matrix(1.061544,0.000000,0.000000,7.393471e-2,34.34913,106.7019)" />
  <path
     style="fill:#ffcb00;fill-opacity:1.0000000;fill-rule:evenodd;stroke:#000000;stroke-width:3.8750000;stroke-miterlimit:4.0000000;stroke-opacity:1.0000000;stroke-dasharray:none;"
     d="M 13.527831,89.021069 L 13.527831,23.621047 C 13.527831,17.011674 16.786355,12.239726 23.632986,12.239726 L 57.099549,12.239726 C 63.946187,12.239726 64.776825,23.403470 71.623463,23.403470 L 109.74872,23.403470 C 112.83991,23.403470 115.19518,26.600999 115.19518,30.275073 L 115.19518,89.021069 L 13.527831,89.021069 z "
     id="path10399"
     sodipodi:nodetypes="cczzzzzcc" />
  <path
     style="fill:url(#linearGradient198);fill-opacity:1.0000000;fill-rule:evenodd;stroke:none;stroke-width:1.2500000;stroke-opacity:0.33962265"
     d="M 17.314787,85.634649 L 17.314787,26.447289 C 17.314787,20.465772 20.263779,16.147135 26.460007,16.147135 L 54.923970,16.147135 C 61.120207,16.147135 61.871939,26.250381 68.068184,26.250381 L 106.73964,26.250381 C 109.53718,26.250381 111.66872,29.144162 111.66872,32.469216 L 111.66872,85.634649 L 17.314787,85.634649 z "
     id="path10401"
     sodipodi:nodetypes="cczzzzzcc" />
  <path
     style="fill:url(#linearGradient10421);fill-opacity:1.0000000;fill-rule:evenodd;stroke:none;stroke-width:1.2500000;stroke-opacity:1.0000000"
     d="M 14.777831,89.021070 L 14.777831,23.621047 C 14.777831,17.011674 17.946212,12.239726 24.603439,12.239726 L 57.144192,12.239726 C 63.801426,12.239726 64.609086,23.403470 71.266320,23.403470 L 108.33689,23.403470 C 111.34257,23.403470 113.63268,26.600999 113.63268,30.275073 L 113.63268,89.021070 L 14.777831,89.021070 z "
     id="path10400"
     sodipodi:nodetypes="cczzzzzcc" />
  <path
     style="fill:#fafafa;fill-opacity:1.0000000;fill-rule:evenodd;stroke:#000000;stroke-width:1.9673948;stroke-linecap:round;stroke-linejoin:round;stroke-miterlimit:4.0000000;stroke-opacity:0.58823532"
     d="M 29.832632,32.680251 L 29.832632,109.26545 L 98.692404,109.26545 L 98.717504,32.745896 L 29.832632,32.680251 z "
     id="path10402"
     sodipodi:nodetypes="ccccc" />
  <path
     style="fill:url(#linearGradient225);fill-opacity:1.0000000;fill-rule:evenodd;stroke:none;stroke-width:1.4895619;stroke-linecap:round;stroke-linejoin:round;stroke-miterlimit:4.0000000;stroke-opacity:0.58823532"
     d="M 28.940122,37.015430 L 28.940122,56.689800 L 98.816229,56.689800 L 98.841698,37.032293 L 28.940122,37.015430 z "
     id="path10424"
     sodipodi:nodetypes="ccccc" />
  <path
     style="fill:#ffc300;fill-opacity:1.0000000;fill-rule:evenodd;stroke:#000000;stroke-width:5.0000000;stroke-miterlimit:4.0000000;stroke-opacity:1.0000000;stroke-dasharray:none;"
     d="M 3.5800406,67.752282 L 9.3924860,108.43403 C 9.9148550,112.09013 13.522236,116.26770 17.204085,116.26770 L 112.43256,116.26770 C 115.68675,116.26770 117.80666,111.66197 118.29127,108.43403 L 124.39889,67.752282 C 125.47737,60.568651 121.61305,53.386027 115.81257,53.386027 L 12.166386,53.386027 C 6.3658748,53.386027 2.5527687,60.562327 3.5800406,67.752282 z "
     id="path10403"
     sodipodi:nodetypes="czzzzzzzz" />
  <path
     style="opacity:0.28301886;fill:url(#linearGradient10415);fill-opacity:1.0000000;fill-rule:evenodd;stroke:none;stroke-width:1.3937240;stroke-miterlimit:4.0000000;stroke-opacity:0.31372550"
     d="M 4.3152919,67.077140 L 10.532030,107.87857 C 11.029756,111.14522 14.611954,114.82222 18.248618,114.87654 L 111.38570,116.26770 C 114.59996,116.31572 116.73226,112.16028 117.17316,109.26973 L 123.66456,66.711464 C 124.64574,60.278708 120.91259,53.857352 115.18267,53.877816 L 12.797190,54.243492 C 7.0672744,54.263957 3.3364850,60.653076 4.3152919,67.077140 z "
     id="path10404"
     sodipodi:nodetypes="czzzzzzzz" />
  <path
     style="opacity:0.48427674;fill:url(#linearGradient102);fill-opacity:1.0000000;fill-rule:evenodd;stroke:none;stroke-width:1.3937240;stroke-miterlimit:4.0000000;stroke-opacity:0.48026314"
     d="M 4.3152920,67.077140 L 9.6481460,109.20440 C 10.063130,112.48258 13.727666,116.19984 17.364735,116.20237 L 111.38570,116.26770 C 114.60032,116.26993 116.73226,112.16028 117.17316,109.26973 L 123.66456,66.711464 C 124.64574,60.278708 120.91259,53.857352 115.18267,53.877816 L 12.797190,54.243492 C 7.0672740,54.263957 3.4992020,60.630384 4.3152920,67.077140 z "
     id="path101"
     sodipodi:nodetypes="czzzzzzzz" />
  <path
     style="opacity:0.11320753;fill:url(#linearGradient194);fill-opacity:1.0000000;fill-rule:evenodd;stroke-width:1.0000000pt"
     d="M 10.033008,78.399512 L 14.020810,101.48840 C 14.701688,105.43060 14.205694,111.19236 19.940778,111.16118 L 106.40045,110.69105 C 113.40458,110.65296 112.79439,107.21951 113.80744,102.42459 L 118.86488,78.486788 L 10.033008,78.399512 z "
     id="path10405"
     sodipodi:nodetypes="czzzzcc" />
  <path
     style="fill:url(#linearGradient10409);fill-opacity:1.0000000;fill-rule:evenodd;stroke-width:0.90415878pt"
     d="M 4.9682151,66.485404 C 4.7818079,67.291978 8.2654741,59.375578 14.171745,59.375578 L 111.83689,59.375578 C 119.10273,59.375578 122.28228,66.950432 122.46870,66.143857 C 122.65511,65.337290 124.48911,54.536131 113.18243,54.536131 L 14.596023,54.536131 C 3.1496173,54.536131 5.1546221,65.678836 4.9682151,66.485404 z "
     id="path10407"
     sodipodi:nodetypes="czzzzzz" />
  <path
     style="fill:none;fill-opacity:1.0000000;fill-rule:evenodd;stroke:none;stroke-width:2.6231930;stroke-miterlimit:4.0000000;stroke-opacity:1.0000000"
     d="M 3.5800406,67.752282 L 9.3924860,108.43403 C 9.9148550,112.09013 13.522236,116.26770 17.204085,116.26770 L 112.43256,116.26770 C 115.68675,116.26770 117.80666,111.66197 118.29127,108.43403 L 124.39889,67.752282 C 125.47737,60.568651 121.61305,53.386027 115.81257,53.386027 L 12.166386,53.386027 C 6.3658748,53.386027 2.5527687,60.562327 3.5800406,67.752282 z "
     id="path99"
     sodipodi:nodetypes="czzzzzzzz" />
  <path
     style="fill:url(#linearGradient866);fill-opacity:1.0;fill-rule:evenodd;stroke-width:1.0000000pt"
     d="M 8.8007750,67.899512 L 14.020810,101.48840 C 19.052329,79.460767 108.36546,78.976869 113.80744,102.42459 L 118.86488,67.986788 L 8.8007750,67.899512 z "
     id="path864"
     sodipodi:nodetypes="ccccc" />
  <g
     id="g2209"
     transform="matrix(0.555370,0.000000,0.000000,0.555370,-21.16578,25.73242)">
    <path
       d="M 255.54700,167.76450 L 206.78600,119.00450 C 204.28100,116.49950 200.22000,116.49950 197.71500,119.00450 L 197.14800,119.57150 L 190.71300,113.13650 C 201.03200,102.71650 207.41000,88.385500 207.41000,72.562500 C 207.41000,40.714500 181.59200,14.895500 149.74200,14.895500 C 117.89400,14.895500 92.076000,40.713500 92.076000,72.562500 C 92.076000,104.41150 117.89400,130.22950 149.74200,130.22950 C 163.45700,130.22950 176.04600,125.43350 185.94400,117.43850 L 192.61200,124.10650 L 192.04400,124.67350 C 189.53900,127.17850 189.53900,131.23950 192.04400,133.74350 L 240.80500,182.50550 C 243.31100,185.00950 247.37100,185.00950 249.87600,182.50550 L 255.54700,176.83550 C 258.05200,174.33150 258.05200,170.26950 255.54700,167.76450 z "
       id="path169"
       style="opacity:0.20000000;stroke:none" />
    <path
       d="M 173.17750,174.29800 L 195.49100,195.67400 L 200.02700,191.14000 L 177.71350,169.76400 L 173.17750,174.29800 z "
       id="path170"
       style="stroke:none"
       transform="translate(4.375000,-68.43750)"
       sodipodi:nodetypes="ccccc" />
    <path
       d="M 186.41900,187.73700 C 183.91400,190.24200 183.91400,194.30300 186.41900,196.80700 L 235.18000,245.56900 C 237.68600,248.07300 241.74600,248.07300 244.25100,245.56900 L 249.92200,239.89900 C 252.42700,237.39300 252.42700,233.33200 249.92200,230.82700 L 201.16100,182.06700 C 198.65600,179.56200 194.59500,179.56200 192.09000,182.06700 L 186.41900,187.73700 z "
       id="path171"
       style="fill:#000000;fill-opacity:1.0000000;stroke:none"
       transform="translate(4.375000,-68.43750)" />
    <path
       d="M 199.24800,184.10500 C 198.01300,182.84000 195.97700,182.81600 194.71300,184.05100 L 188.97500,189.65400 C 187.71000,190.88800 187.68600,192.92400 188.92000,194.18800 L 237.09300,243.52900 C 238.32800,244.79600 240.36400,244.82000 241.62800,243.58400 L 247.36500,237.98300 C 248.63200,236.74800 248.65600,234.71200 247.42000,233.44800 L 199.24800,184.10500 z "
       id="path178"
       style="fill:url(#linearGradient2217);stroke:none"
       transform="translate(4.375000,-68.43750)" />
    <path
       style="fill:#cccccc;stroke:#000000;stroke-width:4.0713134;stroke-miterlimit:4.0000000;stroke-opacity:1.0000000"
       d="M 148.50000,10.906250 C 117.46031,10.906250 92.187500,36.147807 92.187500,67.187500 C 92.187501,98.227194 117.46136,123.46875 148.50000,123.46875 C 179.54075,123.46875 204.78125,98.227193 204.78125,67.187500 C 204.78124,36.147808 179.54075,10.906250 148.50000,10.906250 z M 148.50000,18.406250 C 175.39100,18.406250 197.25000,40.297501 197.25000,67.187500 C 197.25000,94.079500 175.39100,115.96875 148.50000,115.96875 C 121.61000,115.96875 99.718752,94.079501 99.718750,67.187500 C 99.718750,40.297500 121.61000,18.406251 148.50000,18.406250 z "
       id="path180" />
    <path
       d="M 98.558000,135.62600 C 98.558000,160.74800 118.99600,181.18700 144.11800,181.18700 C 169.24100,181.18700 189.68000,160.74900 189.68000,135.62600 C 189.68000,110.50500 169.24200,90.066000 144.11800,90.066000 C 118.99600,90.066000 98.558000,110.50500 98.558000,135.62600 z "
       id="path189"
       style="fill:url(#linearGradient2218);stroke:none"
       transform="translate(4.375000,-68.43750)" />
    <path
       d="M 100.55800,135.62600 C 100.55800,142.02500 101.95600,148.10000 104.44500,153.57800 C 106.08600,153.00300 107.62300,152.18100 109.00000,151.00000 C 131.08700,136.05900 149.37800,113.52500 171.82000,102.03400 C 164.28500,95.810000 154.63000,92.066000 144.11700,92.066000 C 120.09800,92.066000 100.55800,111.60700 100.55800,135.62600 z "
       id="path190"
       style="fill:url(#linearGradient2219);fill-opacity:1.0000000;stroke:none"
       transform="translate(4.375000,-68.43750)" />
  </g>
</svg>
