<?xml version="1.0" encoding="UTF-8" standalone="no"?>
<!-- Created with Inkscape (http://www.inkscape.org/) -->
<svg
   xmlns:dc="http://purl.org/dc/elements/1.1/"
   xmlns:cc="http://web.resource.org/cc/"
   xmlns:rdf="http://www.w3.org/1999/02/22-rdf-syntax-ns#"
   xmlns:svg="http://www.w3.org/2000/svg"
   xmlns="http://www.w3.org/2000/svg"
   xmlns:xlink="http://www.w3.org/1999/xlink"
   xmlns:sodipodi="http://inkscape.sourceforge.net/DTD/sodipodi-0.dtd"
   xmlns:inkscape="http://www.inkscape.org/namespaces/inkscape"
   sodipodi:docname="password.svg"
   sodipodi:docbase="/usr/share/icons/dlg-etiquette/scalable/apps"
   inkscape:version="0.41"
   sodipodi:version="0.32"
   id="svg1673"
   height="102.40000pt"
   width="102.40000pt">
  <defs
     id="defs3">
    <linearGradient
       id="linearGradient2485">
      <stop
         id="stop2487"
         offset="0.0000000"
         style="stop-color:#000000;stop-opacity:0.41666666;" />
      <stop
         id="stop2489"
         offset="1"
         style="stop-color:#000000;stop-opacity:0;" />
    </linearGradient>
    <linearGradient
       id="linearGradient3290">
      <stop
         id="stop3291"
         offset="0.0000000"
         style="stop-color:#ffea00;stop-opacity:1.0000000;" />
      <stop
         id="stop3292"
         offset="1.0000000"
         style="stop-color:#ea9a00;stop-opacity:1.0000000;" />
    </linearGradient>
    <linearGradient
       y2="32.270412"
       x2="29.259930"
       y1="32.270412"
       x1="13.518266"
       gradientTransform="matrix(5.237492,0.000000,0.000000,3.890182,-50.70374,-43.86445)"
       gradientUnits="userSpaceOnUse"
       id="linearGradient1711"
       xlink:href="#linearGradient3290"
       inkscape:collect="always" />
    <radialGradient
       gradientUnits="userSpaceOnUse"
       r="26.049402"
       fy="296.21893"
       fx="23.581566"
       cy="296.21893"
       cx="23.581566"
       gradientTransform="scale(2.604940,0.383886)"
       id="radialGradient2493"
       xlink:href="#linearGradient2485"
       inkscape:collect="always" />
  </defs>
  <sodipodi:namedview
     inkscape:window-y="71"
     inkscape:window-x="4"
     inkscape:window-height="542"
     inkscape:window-width="640"
     inkscape:current-layer="layer1"
     inkscape:document-units="px"
     inkscape:cy="47.616207"
     inkscape:cx="34.844077"
     inkscape:zoom="1.4000000"
     inkscape:pageshadow="2"
     inkscape:pageopacity="0.0"
     borderopacity="1.0"
     bordercolor="#666666"
     pagecolor="#ffffff"
     id="base" />
  <metadata
     id="metadata4">
    <rdf:RDF
       id="RDF5">
      <cc:Work
         id="Work6"
         rdf:about="">
        <dc:format
           id="format7">image/svg+xml</dc:format>
        <dc:type
           rdf:resource="http://purl.org/dc/dcmitype/StillImage"
           id="type9" />
      </cc:Work>
    </rdf:RDF>
  </metadata>
  <g
     id="layer1"
     inkscape:groupmode="layer"
     inkscape:label="Layer 1">
    <g
       id="g2495">
      <path
         transform="matrix(0.952632,0.000000,0.000000,1.000000,6.124060,0.000000)"
         d="M 129.28571 113.71429 A 67.857140 10.000000 0 1 1  -6.4285698,113.71429 A 67.857140 10.000000 0 1 1  129.28571 113.71429 z"
         sodipodi:ry="10.000000"
         sodipodi:rx="67.857140"
         sodipodi:cy="113.71429"
         sodipodi:cx="61.428570"
         id="path1724"
         style="fill:url(#radialGradient2493);fill-opacity:1.0000000;stroke:none;stroke-width:2.3293400;stroke-linecap:round;stroke-linejoin:round;stroke-miterlimit:4.0000000;stroke-opacity:1.0000000"
         sodipodi:type="arc" />
      <path
         style="fill:#000000;fill-opacity:0.50224215"
         id="path2540"
         d="M 29.715657,40.620017 C 29.715657,40.620017 29.715657,45.699658 29.715657,49.932691 C 23.717754,50.355995 18.642607,55.435635 18.642607,60.938578 L 18.642607,105.80873 C 18.642607,112.15829 24.179132,116.81462 30.638410,116.81462 L 96.615330,116.81462 C 103.53598,116.81462 108.61113,111.73497 108.61113,105.80873 L 108.61113,60.515275 C 108.61113,55.012331 103.99736,50.355995 98.460840,49.509388 C 98.460840,45.699658 98.460840,40.196714 98.460840,40.196714 C 98.460840,22.841276 82.774012,8.4489640 63.857558,8.4489640 C 44.941099,8.4489640 29.254279,22.841276 29.254279,40.196714 L 29.715657,40.620017 z M 51.400377,40.620017 C 51.400377,34.270467 56.936902,28.767523 64.318934,28.767523 C 71.239590,28.767523 77.237491,33.847164 77.237491,40.620017 C 77.237491,40.620017 77.237491,45.699658 77.237491,49.509388 C 71.239590,49.509388 57.398279,49.509388 51.400377,49.509388 C 51.400377,45.699658 51.400377,40.620017 51.400377,40.620017 z " />
      <path
         id="path897"
         d="M 26.978905,38.967823 C 26.978905,38.967823 26.978905,44.047464 26.978905,48.280497 C 20.981004,48.703801 15.905857,53.783441 15.905857,59.286385 L 15.905857,104.15654 C 15.905857,110.50609 21.442382,115.16243 27.901660,115.16243 L 93.878577,115.16243 C 100.79923,115.16243 105.87438,110.08279 105.87438,104.15654 L 105.87438,58.863081 C 105.87438,53.360138 101.26060,48.703801 95.724086,47.857194 C 95.724086,44.047464 95.724086,38.544520 95.724086,38.544520 C 95.724086,21.189082 80.037260,6.7967681 61.120807,6.7967681 C 42.204348,6.7967681 26.517527,21.189082 26.517527,38.544520 L 26.978905,38.967823 z M 48.663626,38.967823 C 48.663626,32.618273 54.200150,27.115329 61.582183,27.115329 C 68.502839,27.115329 74.500740,32.194970 74.500740,38.967823 C 74.500740,38.967823 74.500740,44.047464 74.500740,47.857194 C 68.502839,47.857194 54.661529,47.857194 48.663626,47.857194 C 48.663626,44.047464 48.663626,38.967823 48.663626,38.967823 z " />
      <path
         id="path899"
         d="M 31.277279,37.931902 L 31.277279,64.614134 L 44.319714,64.614134 L 44.319714,37.931902 C 44.319714,28.746216 52.238336,21.310185 62.020163,21.310185 C 71.801988,21.310185 79.720610,28.746216 79.720610,37.931902 L 79.720610,64.614134 L 92.763045,64.614134 L 92.763045,37.931902 C 92.763045,22.185011 79.254808,9.5000166 62.485963,9.5000166 C 45.717118,9.5000166 32.208881,22.185011 32.208881,37.931902 L 31.277279,37.931902 z "
         style="fill:#d2d2d2" />
      <g
         transform="matrix(4.658013,0.000000,0.000000,4.374136,-50.70374,-43.86445)"
         id="g901">
        <path
           id="path903"
           d="M 24.600000,12.600000 C 27.900000,12.500000 30.500000,14.900000 30.700000,18.600000 L 30.700000,24.700000 L 30.100000,24.700000 L 30.100000,19.000000 C 30.100000,15.400000 27.600000,12.900000 24.600000,12.600000 z "
           style="opacity:0.49999997;stroke:none" />
      </g>
      <g
         transform="matrix(4.658013,0.000000,0.000000,4.374136,-50.70374,-43.86445)"
         id="g906">
        <path
           id="path908"
           d="M 24.600000,12.600000 C 25.900000,12.600000 27.200000,13.000000 28.200000,13.700000 C 27.100000,12.800000 25.600000,12.200000 24.000000,12.200000 C 20.400000,12.200000 17.500000,15.100000 17.500000,18.700000 L 17.500000,24.800000 L 18.100000,24.800000 L 18.100000,19.100000 C 18.100000,15.500000 21.000000,12.600000 24.600000,12.600000 L 24.600000,12.600000 z "
           style="opacity:0.49999997;fill:#ffffff;stroke:none" />
      </g>
      <g
         transform="matrix(4.658013,0.000000,0.000000,4.374136,-50.70374,-43.86445)"
         id="g911">
        <path
           id="path913"
           d="M 28.400000,24.700000 L 28.400000,18.900000 C 28.400000,17.400000 27.500000,16.100000 26.300000,15.500000 C 27.300000,16.200000 27.900000,17.300000 27.900000,18.600000 L 27.900000,24.700000 L 28.400000,24.700000 L 28.400000,24.700000 z "
           style="opacity:0.49999997;fill:#ffffff;stroke:none" />
      </g>
      <g
         transform="matrix(4.658013,0.000000,0.000000,4.374136,-50.70374,-43.86445)"
         id="g916">
        <path
           id="path918"
           d="M 20.000000,24.800000 L 20.000000,19.000000 C 20.000000,17.500000 20.900000,16.200000 22.100000,15.600000 C 21.100000,16.300000 20.500000,17.400000 20.500000,18.700000 L 20.500000,24.800000 L 20.000000,24.800000 L 20.000000,24.800000 z "
           style="opacity:0.49999997;stroke:none" />
      </g>
      <path
         id="path950"
         d="M 102.54487,104.85619 C 102.54487,108.79291 99.284264,112.29222 94.626251,112.29222 L 28.016670,112.29222 C 23.824458,112.29222 20.098049,109.23033 20.098049,104.85619 L 20.098049,58.490344 C 20.098049,54.553620 23.358657,51.054311 28.016670,51.054311 L 94.626251,51.054311 C 98.818462,51.054311 102.54487,54.116207 102.54487,58.490344 L 102.54487,104.85619 z "
         style="fill:url(#linearGradient1711);fill-opacity:1.0000000" />
      <path
         id="path952"
         d="M 74.130994,73.799821 C 74.130994,68.988270 69.007182,64.176720 63.883367,64.176720 C 58.759553,64.176720 55.964745,68.988270 55.964745,73.799821 C 55.964745,77.299129 58.293752,80.361025 61.554361,81.673265 L 53.635739,94.358260 L 73.665194,95.670502 L 68.075578,81.673265 C 71.336188,80.361025 73.665194,77.299129 73.665194,73.799821 L 74.130994,73.799821 z "
         style="opacity:0.49999997;fill:#ffffff" />
      <path
         id="path954"
         d="M 72.267789,72.050165 C 72.267789,67.238616 67.609777,61.989652 61.088559,61.989652 C 55.964745,61.989652 52.238336,65.926374 52.238336,70.300511 C 52.238336,75.549475 55.033144,78.611369 58.293752,79.923611 L 54.101541,94.358260 L 70.404585,92.608606 L 64.349169,78.611369 C 67.609777,77.299129 72.267789,75.549475 72.267789,72.050165 z "
         style="opacity:0.49999997" />
      <path
         id="path956"
         d="M 72.267789,72.487579 C 72.267789,67.676028 68.075578,64.176720 63.417566,64.176720 C 58.759553,64.176720 54.567342,68.113442 54.567342,72.487579 C 54.567342,75.986889 56.896348,79.048783 60.156956,80.361025 L 54.567342,94.358260 L 72.733591,94.358260 L 67.143975,80.361025 C 70.404585,79.048783 72.733591,75.986889 72.733591,72.487579 L 72.267789,72.487579 z " />
      <path
         id="path958"
         d="M 29.278870,113.95719 C 29.278870,113.95719 92.162042,113.95719 95.888453,113.95719 C 100.08066,113.95719 103.80707,110.89530 103.80707,106.52116 C 103.80707,102.58444 103.80707,60.155341 103.80707,60.155341 C 103.80707,60.155341 99.149058,102.14703 98.683261,104.33410 C 98.217455,106.52116 96.354250,109.58305 93.093645,109.58305 C 90.298836,109.58305 29.278870,113.51977 29.278870,113.51977 L 29.278870,113.95719 z "
         style="opacity:0.49999997" />
      <path
         id="path960"
         d="M 96.294141,50.377039 C 96.294141,50.377039 33.410970,50.377039 29.684559,50.377039 C 25.492348,50.377039 21.765939,53.438934 21.765939,57.813069 C 21.765939,62.187202 21.765939,104.17889 21.765939,104.17889 C 21.765939,104.17889 26.423951,62.187202 26.889753,60.000135 C 27.355553,58.250481 29.218758,54.751174 32.479367,54.751174 C 35.274175,54.751174 96.294141,50.814453 96.294141,50.814453 L 96.294141,50.377039 z "
         style="opacity:0.49999997;fill:#ffffff" />
    </g>
  </g>
</svg>
